<?xml version="1.0" encoding="iso-8859-1"?>
<!-- Generator: Adobe Illustrator 26.5.0, SVG Export Plug-In . SVG Version: 6.00 Build 0)  -->
<svg version="1.1" xmlns="http://www.w3.org/2000/svg" xmlns:xlink="http://www.w3.org/1999/xlink" x="0px" y="0px"
	 viewBox="0 0 747.252 426.748" style="enable-background:new 0 0 747.252 426.748;" xml:space="preserve">
<g id="kpn_logo">
	<g>
		<path style="fill:#FFFFFF;" d="M582.971,174.86c34.055,0,42.351,16.001,42.351,40.886v44.457h-26.134l-0.011-40.588
			c0-15.927-2.698-24.526-16.845-24.526c-4.876,0-9.607,0.921-13.362,2.6v62.515h-26.137v-77.854
			C554.589,177.677,567.514,174.86,582.971,174.86 M358.256,145.862h-26.046v114.339h26.046V145.862z M358.315,215.209
			l28.425-37.328h29.666l-29.689,36.399l32.368,45.921h-30.887L358.315,215.209z M435.744,182.349
			c10.848-4.467,25.266-7.488,39.053-7.488c30.801,0,45.652,15.5,45.652,43.257c0,27.534-15.1,43.983-43.832,43.983
			c-4.893,0-9.25-0.236-14.815-1.253v31.372h-26.058V182.349 M474.601,194.796c-4.629,0-9.111,0.788-12.799,2.482v43.765
			c2.596,1,7.689,1.827,11.731,1.827c14.067,0,20.027-8.674,20.027-24.565C493.56,201.899,486.013,194.796,474.601,194.796"/>
		<g>
			<path style="fill-rule:evenodd;clip-rule:evenodd;fill:#FFFFFF;" d="M247.283,169.083
				c-15.914-28.741-47.869-47.153-66.939-47.153c-27.337,0-38.443,28.788-38.443,54.822c0,12.08,4.129,23.015,7.574,31.552
				l0.314,0.777c0,0,4.789-3.101,8.987-5.401c-4.332-10.714-6.522-18.907-6.522-26.928c0-16.639,4.075-30.254,11.182-37.36
				c4.135-4.135,10.582-7.109,16.908-7.109c15.051,0,40.866,14.566,55.234,38.031C239.544,169.651,242.439,169.272,247.283,169.083"
				/>
			<path style="fill-rule:evenodd;clip-rule:evenodd;fill:#FFFFFF;" d="M217.498,275.574l-0.359-0.376l-0.489,0.177
				c-5.529,1.982-11.21,2.947-17.369,2.947c-20.174,0-42.223-9.013-56.17-22.963c-6.999-7.003-10.827-14.571-10.827-20.531
				c0-8.143,2.647-14.69,9.093-19.635c-1.251-2.915-2.577-6.313-3.8-10c-10.777,7.183-15.646,17.165-15.646,29.635
				c0,8.812,4.804,18.791,13.861,27.847c12.565,12.569,35.841,26.003,63.489,26.003c8.691,0,16.969-1.694,24.608-5.034l1.086-0.474
				l-0.846-0.829C221.786,280.04,219.554,277.72,217.498,275.574"/>
			<path style="fill-rule:evenodd;clip-rule:evenodd;fill:#FFFFFF;" d="M205.698,203.551v-9.035
				c-2.166-0.619-3.765-0.928-6.364-0.928c-9.178,0-14.372,7.174-15.149,14.337c-0.591,5.447,0.946,13.391,10.463,28.135
				c3.856-0.511,7.71-0.837,11.483-0.937c-8.29-15.38-10.31-20.779-10.31-24.714c0-4.581,2.636-6.914,8-6.914
				C204.543,203.495,205.127,203.506,205.698,203.551"/>
			<path style="fill-rule:evenodd;clip-rule:evenodd;fill:#FFFFFF;" d="M209.576,254.352c8.492,0,17.148,1.076,26.157,3.755
				l3.077-10.067c-10.111-3.017-19.961-4.25-29.234-4.25s-19.122,1.233-29.232,4.25l3.075,10.067
				C192.43,255.428,201.084,254.352,209.576,254.352"/>
			
				<rect x="202.957" y="172.64" transform="matrix(0.7072 -0.707 0.707 0.7072 -65.3742 200.6693)" style="fill-rule:evenodd;clip-rule:evenodd;fill:#FFFFFF;" width="13.239" height="13.239"/>
			<path style="fill-rule:evenodd;clip-rule:evenodd;fill:#FFFFFF;" d="M187.337,237.315
				c-10.942-10.225-12.668-13.019-12.668-16.133c0-2.244,1.484-3.698,4.159-4.183c-0.664-2.796-0.952-5.417-0.866-7.91
				c-8.321-0.221-14.118,4.471-14.118,11.238c0,5.349,2.041,10.203,13.021,19.635l0.98-0.294
				C180.967,238.737,184.139,237.964,187.337,237.315"/>
			<path style="fill-rule:evenodd;clip-rule:evenodd;fill:#FFFFFF;" d="M213.455,203.551v-9.035
				c2.166-0.619,3.765-0.928,6.364-0.928c9.178,0,14.372,7.174,15.149,14.337c0.591,5.447-0.946,13.391-10.463,28.135
				c-3.856-0.511-7.71-0.837-11.483-0.937c8.29-15.38,10.31-20.779,10.31-24.714c0-4.581-2.636-6.914-8-6.914
				C214.609,203.495,214.025,203.506,213.455,203.551"/>
			<path style="fill-rule:evenodd;clip-rule:evenodd;fill:#FFFFFF;" d="M231.816,237.315c10.942-10.225,12.668-13.019,12.668-16.133
				c0-2.244-1.484-3.698-4.159-4.183c0.664-2.796,0.952-5.417,0.866-7.91c8.321-0.221,14.118,4.471,14.118,11.238
				c0,5.349-2.041,10.203-13.021,19.635l-0.98-0.294C238.185,238.737,235.014,237.964,231.816,237.315"/>
			<path style="fill-rule:evenodd;clip-rule:evenodd;fill:#FFFFFF;" d="M281.962,190.41c-5.428-5.527-14.491-12.117-31.53-12.117
				c-3.146,0-6.232,0.21-9.176,0.627l-0.918,0.128l0.26,0.907c0.783,2.722,1.405,5.629,1.852,8.645l0.115,0.786l0.777-0.1
				c2.387-0.305,4.707-0.454,7.09-0.454c13.493,0,20.163,4.91,24.211,9.029c4.2,4.276,6.607,9.912,6.607,15.464
				c0,7.1-3.672,16.062-7.235,24.757c-1.764,4.307-4.986,12.597-6.732,19.699c-3.309,13.443-9.838,36.503-23.062,36.503
				c-4.361,0-7.063-0.405-13.199-5.334c-3.354,1.915-6.88,3.502-10.578,4.741c9.886,8.959,15.798,11.128,23.777,11.128
				c21.433,0,29.371-29.139,33.104-44.493c1.141-4.69,3.357-11.149,6.243-18.183c3.949-9.637,8.031-19.602,8.031-28.817
				C291.6,204.996,288.088,196.645,281.962,190.41"/>
		</g>
	</g>
</g>
<g id="marges">
	<rect style="fill:none;" width="121.929" height="121.929"/>
	<rect x="625.323" style="fill:none;" width="121.929" height="121.929"/>
	<rect y="304.818" style="fill:none;" width="121.929" height="121.929"/>
	<rect x="625.323" y="304.818" style="fill:none;" width="121.929" height="121.929"/>
</g>
</svg>
